<svg xmlns="http://www.w3.org/2000/svg" width="288" height="140" viewBox="0 0 288 140">
  <g id="standard">
    <rect x="8" y="0" width="80" height="110" rx="10" fill="#000054"/>
    <g fill="#f93500">
      <rect x="13" y="5" width="10" height="10" rx="5"/>
      <rect x="43" y="5" width="10" height="10" rx="5"/>
      <rect x="58" y="5" width="10" height="10" rx="5"/>
      <rect x="73" y="5" width="10" height="10" rx="5"/>
      <rect x="13" y="20" width="10" height="10" rx="5"/>
      <rect x="28" y="20" width="10" height="10" rx="5"/>
      <rect x="58" y="20" width="10" height="10" rx="5"/>
      <rect x="13" y="35" width="10" height="10" rx="5"/>
      <rect x="28" y="35" width="10" height="10" rx="5"/>
      <rect x="43" y="35" width="10" height="10" rx="5"/>
      <rect x="58" y="35" width="10" height="10" rx="5"/>
      <rect x="73" y="35" width="10" height="10" rx="5"/>
      <rect x="13" y="50" width="10" height="10" rx="5"/>
      <rect x="28" y="50" width="10" height="10" rx="5"/>
      <rect x="43" y="50" width="10" height="10" rx="5"/>
      <rect x="58" y="50" width="10" height="10" rx="5"/>
      <rect x="73" y="50" width="10" height="10" rx="5"/>
      <rect x="13" y="65" width="10" height="10" rx="5"/>
      <rect x="28" y="65" width="10" height="10" rx="5"/>
      <rect x="43" y="65" width="10" height="10" rx="5"/>
      <rect x="58" y="65" width="10" height="10" rx="5"/>
      <rect x="73" y="65" width="10" height="10" rx="5"/>
      <rect x="28" y="80" width="10" height="10" rx="5"/>
      <rect x="58" y="80" width="10" height="10" rx="5"/>
      <rect x="73" y="80" width="10" height="10" rx="5"/>
      <rect x="13" y="95" width="10" height="10" rx="5"/>
      <rect x="28" y="95" width="10" height="10" rx="5"/>
      <rect x="43" y="95" width="10" height="10" rx="5"/>
      <rect x="73" y="95" width="10" height="10" rx="5"/>
      <rect x="13" y="10" width="10" height="15"/>
      <rect x="48" y="5" width="15" height="10"/>
      <rect x="63" y="5" width="15" height="10"/>
      <rect x="58" y="10" width="10" height="15"/>
      <rect x="13" y="25" width="10" height="15"/>
      <rect x="28" y="25" width="10" height="15"/>
      <rect x="58" y="25" width="10" height="15"/>
      <rect x="18" y="35" width="15" height="10"/>
      <rect x="13" y="40" width="10" height="15"/>
      <rect x="33" y="35" width="15" height="10"/>
      <rect x="28" y="40" width="10" height="15"/>
      <rect x="73" y="40" width="10" height="15"/>
      <rect x="18" y="50" width="15" height="10"/>
      <rect x="13" y="55" width="10" height="15"/>
      <rect x="33" y="50" width="15" height="10"/>
      <rect x="48" y="50" width="15" height="10"/>
      <rect x="63" y="50" width="15" height="10"/>
      <rect x="58" y="55" width="10" height="15"/>
      <rect x="73" y="55" width="10" height="15"/>
      <rect x="28" y="70" width="10" height="15"/>
      <rect x="48" y="65" width="15" height="10"/>
      <rect x="63" y="65" width="15" height="10"/>
      <rect x="58" y="70" width="10" height="15"/>
      <rect x="73" y="70" width="10" height="15"/>
      <rect x="28" y="85" width="10" height="15"/>
      <rect x="73" y="85" width="10" height="15"/>
      <rect x="18" y="95" width="15" height="10"/>
      <rect x="33" y="95" width="15" height="10"/>
      <rect x="23" y="45" width="5" height="5"/>
      <rect x="68" y="60" width="5" height="5"/>
    </g>
    <rect x="40" y="116" width="16" height="22" fill="#000054"/>
    <g fill="#f93500">
      <rect x="41" y="117" width="1" height="1"/>
      <rect x="42" y="117" width="1" height="1"/>
      <rect x="47" y="117" width="1" height="1"/>
      <rect x="48" y="117" width="1" height="1"/>
      <rect x="49" y="117" width="1" height="1"/>
      <rect x="50" y="117" width="1" height="1"/>
      <rect x="51" y="117" width="1" height="1"/>
      <rect x="52" y="117" width="1" height="1"/>
      <rect x="53" y="117" width="1" height="1"/>
      <rect x="54" y="117" width="1" height="1"/>
      <rect x="41" y="118" width="1" height="1"/>
      <rect x="42" y="118" width="1" height="1"/>
      <rect x="47" y="118" width="1" height="1"/>
      <rect x="48" y="118" width="1" height="1"/>
      <rect x="49" y="118" width="1" height="1"/>
      <rect x="50" y="118" width="1" height="1"/>
      <rect x="51" y="118" width="1" height="1"/>
      <rect x="52" y="118" width="1" height="1"/>
      <rect x="53" y="118" width="1" height="1"/>
      <rect x="54" y="118" width="1" height="1"/>
      <rect x="41" y="119" width="1" height="1"/>
      <rect x="42" y="119" width="1" height="1"/>
      <rect x="50" y="119" width="1" height="1"/>
      <rect x="51" y="119" width="1" height="1"/>
      <rect x="41" y="120" width="1" height="1"/>
      <rect x="42" y="120" width="1" height="1"/>
      <rect x="44" y="120" width="1" height="1"/>
      <rect x="45" y="120" width="1" height="1"/>
      <rect x="50" y="120" width="1" height="1"/>
      <rect x="51" y="120" width="1" height="1"/>
      <rect x="41" y="121" width="1" height="1"/>
      <rect x="42" y="121" width="1" height="1"/>
      <rect x="44" y="121" width="1" height="1"/>
      <rect x="45" y="121" width="1" height="1"/>
      <rect x="50" y="121" width="1" height="1"/>
      <rect x="51" y="121" width="1" height="1"/>
      <rect x="41" y="122" width="1" height="1"/>
      <rect x="42" y="122" width="1" height="1"/>
      <rect x="44" y="122" width="1" height="1"/>
      <rect x="45" y="122" width="1" height="1"/>
      <rect x="50" y="122" width="1" height="1"/>
      <rect x="51" y="122" width="1" height="1"/>
      <rect x="41" y="123" width="1" height="1"/>
      <rect x="42" y="123" width="1" height="1"/>
      <rect x="43" y="123" width="1" height="1"/>
      <rect x="44" y="123" width="1" height="1"/>
      <rect x="45" y="123" width="1" height="1"/>
      <rect x="46" y="123" width="1" height="1"/>
      <rect x="47" y="123" width="1" height="1"/>
      <rect x="48" y="123" width="1" height="1"/>
      <rect x="50" y="123" width="1" height="1"/>
      <rect x="51" y="123" width="1" height="1"/>
      <rect x="53" y="123" width="1" height="1"/>
      <rect x="54" y="123" width="1" height="1"/>
      <rect x="41" y="124" width="1" height="1"/>
      <rect x="42" y="124" width="1" height="1"/>
      <rect x="43" y="124" width="1" height="1"/>
      <rect x="44" y="124" width="1" height="1"/>
      <rect x="45" y="124" width="1" height="1"/>
      <rect x="46" y="124" width="1" height="1"/>
      <rect x="47" y="124" width="1" height="1"/>
      <rect x="48" y="124" width="1" height="1"/>
      <rect x="50" y="124" width="1" height="1"/>
      <rect x="51" y="124" width="1" height="1"/>
      <rect x="53" y="124" width="1" height="1"/>
      <rect x="54" y="124" width="1" height="1"/>
      <rect x="41" y="125" width="1" height="1"/>
      <rect x="42" y="125" width="1" height="1"/>
      <rect x="43" y="125" width="1" height="1"/>
      <rect x="44" y="125" width="1" height="1"/>
      <rect x="45" y="125" width="1" height="1"/>
      <rect x="53" y="125" width="1" height="1"/>
      <rect x="54" y="125" width="1" height="1"/>
      <rect x="41" y="126" width="1" height="1"/>
      <rect x="42" y="126" width="1" height="1"/>
      <rect x="43" y="126" width="1" height="1"/>
      <rect x="44" y="126" width="1" height="1"/>
      <rect x="45" y="126" width="1" height="1"/>
      <rect x="46" y="126" width="1" height="1"/>
      <rect x="47" y="126" width="1" height="1"/>
      <rect x="48" y="126" width="1" height="1"/>
      <rect x="49" y="126" width="1" height="1"/>
      <rect x="50" y="126" width="1" height="1"/>
      <rect x="51" y="126" width="1" height="1"/>
      <rect x="52" y="126" width="1" height="1"/>
      <rect x="53" y="126" width="1" height="1"/>
      <rect x="54" y="126" width="1" height="1"/>
      <rect x="41" y="127" width="1" height="1"/>
      <rect x="42" y="127" width="1" height="1"/>
      <rect x="43" y="127" width="1" height="1"/>
      <rect x="44" y="127" width="1" height="1"/>
      <rect x="45" y="127" width="1" height="1"/>
      <rect x="46" y="127" width="1" height="1"/>
      <rect x="47" y="127" width="1" height="1"/>
      <rect x="48" y="127" width="1" height="1"/>
      <rect x="49" y="127" width="1" height="1"/>
      <rect x="50" y="127" width="1" height="1"/>
      <rect x="51" y="127" width="1" height="1"/>
      <rect x="52" y="127" width="1" height="1"/>
      <rect x="53" y="127" width="1" height="1"/>
      <rect x="54" y="127" width="1" height="1"/>
      <rect x="41" y="128" width="1" height="1"/>
      <rect x="42" y="128" width="1" height="1"/>
      <rect x="50" y="128" width="1" height="1"/>
      <rect x="51" y="128" width="1" height="1"/>
      <rect x="52" y="128" width="1" height="1"/>
      <rect x="53" y="128" width="1" height="1"/>
      <rect x="54" y="128" width="1" height="1"/>
      <rect x="41" y="129" width="1" height="1"/>
      <rect x="42" y="129" width="1" height="1"/>
      <rect x="44" y="129" width="1" height="1"/>
      <rect x="45" y="129" width="1" height="1"/>
      <rect x="47" y="129" width="1" height="1"/>
      <rect x="48" y="129" width="1" height="1"/>
      <rect x="49" y="129" width="1" height="1"/>
      <rect x="50" y="129" width="1" height="1"/>
      <rect x="51" y="129" width="1" height="1"/>
      <rect x="52" y="129" width="1" height="1"/>
      <rect x="53" y="129" width="1" height="1"/>
      <rect x="54" y="129" width="1" height="1"/>
      <rect x="41" y="130" width="1" height="1"/>
      <rect x="42" y="130" width="1" height="1"/>
      <rect x="44" y="130" width="1" height="1"/>
      <rect x="45" y="130" width="1" height="1"/>
      <rect x="47" y="130" width="1" height="1"/>
      <rect x="48" y="130" width="1" height="1"/>
      <rect x="49" y="130" width="1" height="1"/>
      <rect x="50" y="130" width="1" height="1"/>
      <rect x="51" y="130" width="1" height="1"/>
      <rect x="52" y="130" width="1" height="1"/>
      <rect x="53" y="130" width="1" height="1"/>
      <rect x="54" y="130" width="1" height="1"/>
      <rect x="44" y="131" width="1" height="1"/>
      <rect x="45" y="131" width="1" height="1"/>
      <rect x="50" y="131" width="1" height="1"/>
      <rect x="51" y="131" width="1" height="1"/>
      <rect x="53" y="131" width="1" height="1"/>
      <rect x="54" y="131" width="1" height="1"/>
      <rect x="44" y="132" width="1" height="1"/>
      <rect x="45" y="132" width="1" height="1"/>
      <rect x="50" y="132" width="1" height="1"/>
      <rect x="51" y="132" width="1" height="1"/>
      <rect x="53" y="132" width="1" height="1"/>
      <rect x="54" y="132" width="1" height="1"/>
      <rect x="44" y="133" width="1" height="1"/>
      <rect x="45" y="133" width="1" height="1"/>
      <rect x="50" y="133" width="1" height="1"/>
      <rect x="51" y="133" width="1" height="1"/>
      <rect x="53" y="133" width="1" height="1"/>
      <rect x="54" y="133" width="1" height="1"/>
      <rect x="44" y="134" width="1" height="1"/>
      <rect x="45" y="134" width="1" height="1"/>
      <rect x="53" y="134" width="1" height="1"/>
      <rect x="54" y="134" width="1" height="1"/>
      <rect x="41" y="135" width="1" height="1"/>
      <rect x="42" y="135" width="1" height="1"/>
      <rect x="43" y="135" width="1" height="1"/>
      <rect x="44" y="135" width="1" height="1"/>
      <rect x="45" y="135" width="1" height="1"/>
      <rect x="46" y="135" width="1" height="1"/>
      <rect x="47" y="135" width="1" height="1"/>
      <rect x="48" y="135" width="1" height="1"/>
      <rect x="53" y="135" width="1" height="1"/>
      <rect x="54" y="135" width="1" height="1"/>
      <rect x="41" y="136" width="1" height="1"/>
      <rect x="42" y="136" width="1" height="1"/>
      <rect x="43" y="136" width="1" height="1"/>
      <rect x="44" y="136" width="1" height="1"/>
      <rect x="45" y="136" width="1" height="1"/>
      <rect x="46" y="136" width="1" height="1"/>
      <rect x="47" y="136" width="1" height="1"/>
      <rect x="48" y="136" width="1" height="1"/>
      <rect x="53" y="136" width="1" height="1"/>
      <rect x="54" y="136" width="1" height="1"/>
    </g>
  </g>
  <g id="high_contrast">
    <rect x="104" y="0" width="80" height="110" rx="10" fill="#140075"/>
    <g fill="#ff6f00">
      <rect x="109" y="5" width="10" height="10" rx="5"/>
      <rect x="139" y="5" width="10" height="10" rx="5"/>
      <rect x="154" y="5" width="10" height="10" rx="5"/>
      <rect x="169" y="5" width="10" height="10" rx="5"/>
      <rect x="109" y="20" width="10" height="10" rx="5"/>
      <rect x="124" y="20" width="10" height="10" rx="5"/>
      <rect x="154" y="20" width="10" height="10" rx="5"/>
      <rect x="109" y="35" width="10" height="10" rx="5"/>
      <rect x="124" y="35" width="10" height="10" rx="5"/>
      <rect x="139" y="35" width="10" height="10" rx="5"/>
      <rect x="154" y="35" width="10" height="10" rx="5"/>
      <rect x="169" y="35" width="10" height="10" rx="5"/>
      <rect x="109" y="50" width="10" height="10" rx="5"/>
      <rect x="124" y="50" width="10" height="10" rx="5"/>
      <rect x="139" y="50" width="10" height="10" rx="5"/>
      <rect x="154" y="50" width="10" height="10" rx="5"/>
      <rect x="169" y="50" width="10" height="10" rx="5"/>
      <rect x="109" y="65" width="10" height="10" rx="5"/>
      <rect x="124" y="65" width="10" height="10" rx="5"/>
      <rect x="139" y="65" width="10" height="10" rx="5"/>
      <rect x="154" y="65" width="10" height="10" rx="5"/>
      <rect x="169" y="65" width="10" height="10" rx="5"/>
      <rect x="124" y="80" width="10" height="10" rx="5"/>
      <rect x="154" y="80" width="10" height="10" rx="5"/>
      <rect x="169" y="80" width="10" height="10" rx="5"/>
      <rect x="109" y="95" width="10" height="10" rx="5"/>
      <rect x="124" y="95" width="10" height="10" rx="5"/>
      <rect x="139" y="95" width="10" height="10" rx="5"/>
      <rect x="169" y="95" width="10" height="10" rx="5"/>
      <rect x="109" y="10" width="10" height="15"/>
      <rect x="144" y="5" width="15" height="10"/>
      <rect x="159" y="5" width="15" height="10"/>
      <rect x="154" y="10" width="10" height="15"/>
      <rect x="109" y="25" width="10" height="15"/>
      <rect x="124" y="25" width="10" height="15"/>
      <rect x="154" y="25" width="10" height="15"/>
      <rect x="114" y="35" width="15" height="10"/>
      <rect x="109" y="40" width="10" height="15"/>
      <rect x="129" y="35" width="15" height="10"/>
      <rect x="124" y="40" width="10" height="15"/>
      <rect x="169" y="40" width="10" height="15"/>
      <rect x="114" y="50" width="15" height="10"/>
      <rect x="109" y="55" width="10" height="15"/>
      <rect x="129" y="50" width="15" height="10"/>
      <rect x="144" y="50" width="15" height="10"/>
      <rect x="159" y="50" width="15" height="10"/>
      <rect x="154" y="55" width="10" height="15"/>
      <rect x="169" y="55" width="10" height="15"/>
      <rect x="124" y="70" width="10" height="15"/>
      <rect x="144" y="65" width="15" height="10"/>
      <rect x="159" y="65" width="15" height="10"/>
      <rect x="154" y="70" width="10" height="15"/>
      <rect x="169" y="70" width="10" height="15"/>
      <rect x="124" y="85" width="10" height="15"/>
      <rect x="169" y="85" width="10" height="15"/>
      <rect x="114" y="95" width="15" height="10"/>
      <rect x="129" y="95" width="15" height="10"/>
      <rect x="119" y="45" width="5" height="5"/>
      <rect x="164" y="60" width="5" height="5"/>
    </g>
    <rect x="136" y="116" width="16" height="22" fill="#140075"/>
    <g fill="#ff6f00">
      <rect x="137" y="117" width="1" height="1"/>
      <rect x="138" y="117" width="1" height="1"/>
      <rect x="143" y="117" width="1" height="1"/>
      <rect x="144" y="117" width="1" height="1"/>
      <rect x="145" y="117" width="1" height="1"/>
      <rect x="146" y="117" width="1" height="1"/>
      <rect x="147" y="117" width="1" height="1"/>
      <rect x="148" y="117" width="1" height="1"/>
      <rect x="149" y="117" width="1" height="1"/>
      <rect x="150" y="117" width="1" height="1"/>
      <rect x="137" y="118" width="1" height="1"/>
      <rect x="138" y="118" width="1" height="1"/>
      <rect x="143" y="118" width="1" height="1"/>
      <rect x="144" y="118" width="1" height="1"/>
      <rect x="145" y="118" width="1" height="1"/>
      <rect x="146" y="118" width="1" height="1"/>
      <rect x="147" y="118" width="1" height="1"/>
      <rect x="148" y="118" width="1" height="1"/>
      <rect x="149" y="118" width="1" height="1"/>
      <rect x="150" y="118" width="1" height="1"/>
      <rect x="137" y="119" width="1" height="1"/>
      <rect x="138" y="119" width="1" height="1"/>
      <rect x="146" y="119" width="1" height="1"/>
      <rect x="147" y="119" width="1" height="1"/>
      <rect x="137" y="120" width="1" height="1"/>
      <rect x="138" y="120" width="1" height="1"/>
      <rect x="140" y="120" width="1" height="1"/>
      <rect x="141" y="120" width="1" height="1"/>
      <rect x="146" y="120" width="1" height="1"/>
      <rect x="147" y="120" width="1" height="1"/>
      <rect x="137" y="121" width="1" height="1"/>
      <rect x="138" y="121" width="1" height="1"/>
      <rect x="140" y="121" width="1" height="1"/>
      <rect x="141" y="121" width="1" height="1"/>
      <rect x="146" y="121" width="1" height="1"/>
      <rect x="147" y="121" width="1" height="1"/>
      <rect x="137" y="122" width="1" height="1"/>
      <rect x="138" y="122" width="1" height="1"/>
      <rect x="140" y="122" width="1" height="1"/>
      <rect x="141" y="122" width="1" height="1"/>
      <rect x="146" y="122" width="1" height="1"/>
      <rect x="147" y="122" width="1" height="1"/>
      <rect x="137" y="123" width="1" height="1"/>
      <rect x="138" y="123" width="1" height="1"/>
      <rect x="139" y="123" width="1" height="1"/>
      <rect x="140" y="123" width="1" height="1"/>
      <rect x="141" y="123" width="1" height="1"/>
      <rect x="142" y="123" width="1" height="1"/>
      <rect x="143" y="123" width="1" height="1"/>
      <rect x="144" y="123" width="1" height="1"/>
      <rect x="146" y="123" width="1" height="1"/>
      <rect x="147" y="123" width="1" height="1"/>
      <rect x="149" y="123" width="1" height="1"/>
      <rect x="150" y="123" width="1" height="1"/>
      <rect x="137" y="124" width="1" height="1"/>
      <rect x="138" y="124" width="1" height="1"/>
      <rect x="139" y="124" width="1" height="1"/>
      <rect x="140" y="124" width="1" height="1"/>
      <rect x="141" y="124" width="1" height="1"/>
      <rect x="142" y="124" width="1" height="1"/>
      <rect x="143" y="124" width="1" height="1"/>
      <rect x="144" y="124" width="1" height="1"/>
      <rect x="146" y="124" width="1" height="1"/>
      <rect x="147" y="124" width="1" height="1"/>
      <rect x="149" y="124" width="1" height="1"/>
      <rect x="150" y="124" width="1" height="1"/>
      <rect x="137" y="125" width="1" height="1"/>
      <rect x="138" y="125" width="1" height="1"/>
      <rect x="139" y="125" width="1" height="1"/>
      <rect x="140" y="125" width="1" height="1"/>
      <rect x="141" y="125" width="1" height="1"/>
      <rect x="149" y="125" width="1" height="1"/>
      <rect x="150" y="125" width="1" height="1"/>
      <rect x="137" y="126" width="1" height="1"/>
      <rect x="138" y="126" width="1" height="1"/>
      <rect x="139" y="126" width="1" height="1"/>
      <rect x="140" y="126" width="1" height="1"/>
      <rect x="141" y="126" width="1" height="1"/>
      <rect x="142" y="126" width="1" height="1"/>
      <rect x="143" y="126" width="1" height="1"/>
      <rect x="144" y="126" width="1" height="1"/>
      <rect x="145" y="126" width="1" height="1"/>
      <rect x="146" y="126" width="1" height="1"/>
      <rect x="147" y="126" width="1" height="1"/>
      <rect x="148" y="126" width="1" height="1"/>
      <rect x="149" y="126" width="1" height="1"/>
      <rect x="150" y="126" width="1" height="1"/>
      <rect x="137" y="127" width="1" height="1"/>
      <rect x="138" y="127" width="1" height="1"/>
      <rect x="139" y="127" width="1" height="1"/>
      <rect x="140" y="127" width="1" height="1"/>
      <rect x="141" y="127" width="1" height="1"/>
      <rect x="142" y="127" width="1" height="1"/>
      <rect x="143" y="127" width="1" height="1"/>
      <rect x="144" y="127" width="1" height="1"/>
      <rect x="145" y="127" width="1" height="1"/>
      <rect x="146" y="127" width="1" height="1"/>
      <rect x="147" y="127" width="1" height="1"/>
      <rect x="148" y="127" width="1" height="1"/>
      <rect x="149" y="127" width="1" height="1"/>
      <rect x="150" y="127" width="1" height="1"/>
      <rect x="137" y="128" width="1" height="1"/>
      <rect x="138" y="128" width="1" height="1"/>
      <rect x="146" y="128" width="1" height="1"/>
      <rect x="147" y="128" width="1" height="1"/>
      <rect x="148" y="128" width="1" height="1"/>
      <rect x="149" y="128" width="1" height="1"/>
      <rect x="150" y="128" width="1" height="1"/>
      <rect x="137" y="129" width="1" height="1"/>
      <rect x="138" y="129" width="1" height="1"/>
      <rect x="140" y="129" width="1" height="1"/>
      <rect x="141" y="129" width="1" height="1"/>
      <rect x="143" y="129" width="1" height="1"/>
      <rect x="144" y="129" width="1" height="1"/>
      <rect x="145" y="129" width="1" height="1"/>
      <rect x="146" y="129" width="1" height="1"/>
      <rect x="147" y="129" width="1" height="1"/>
      <rect x="148" y="129" width="1" height="1"/>
      <rect x="149" y="129" width="1" height="1"/>
      <rect x="150" y="129" width="1" height="1"/>
      <rect x="137" y="130" width="1" height="1"/>
      <rect x="138" y="130" width="1" height="1"/>
      <rect x="140" y="130" width="1" height="1"/>
      <rect x="141" y="130" width="1" height="1"/>
      <rect x="143" y="130" width="1" height="1"/>
      <rect x="144" y="130" width="1" height="1"/>
      <rect x="145" y="130" width="1" height="1"/>
      <rect x="146" y="130" width="1" height="1"/>
      <rect x="147" y="130" width="1" height="1"/>
      <rect x="148" y="130" width="1" height="1"/>
      <rect x="149" y="130" width="1" height="1"/>
      <rect x="150" y="130" width="1" height="1"/>
      <rect x="140" y="131" width="1" height="1"/>
      <rect x="141" y="131" width="1" height="1"/>
      <rect x="146" y="131" width="1" height="1"/>
      <rect x="147" y="131" width="1" height="1"/>
      <rect x="149" y="131" width="1" height="1"/>
      <rect x="150" y="131" width="1" height="1"/>
      <rect x="140" y="132" width="1" height="1"/>
      <rect x="141" y="132" width="1" height="1"/>
      <rect x="146" y="132" width="1" height="1"/>
      <rect x="147" y="132" width="1" height="1"/>
      <rect x="149" y="132" width="1" height="1"/>
      <rect x="150" y="132" width="1" height="1"/>
      <rect x="140" y="133" width="1" height="1"/>
      <rect x="141" y="133" width="1" height="1"/>
      <rect x="146" y="133" width="1" height="1"/>
      <rect x="147" y="133" width="1" height="1"/>
      <rect x="149" y="133" width="1" height="1"/>
      <rect x="150" y="133" width="1" height="1"/>
      <rect x="140" y="134" width="1" height="1"/>
      <rect x="141" y="134" width="1" height="1"/>
      <rect x="149" y="134" width="1" height="1"/>
      <rect x="150" y="134" width="1" height="1"/>
      <rect x="137" y="135" width="1" height="1"/>
      <rect x="138" y="135" width="1" height="1"/>
      <rect x="139" y="135" width="1" height="1"/>
      <rect x="140" y="135" width="1" height="1"/>
      <rect x="141" y="135" width="1" height="1"/>
      <rect x="142" y="135" width="1" height="1"/>
      <rect x="143" y="135" width="1" height="1"/>
      <rect x="144" y="135" width="1" height="1"/>
      <rect x="149" y="135" width="1" height="1"/>
      <rect x="150" y="135" width="1" height="1"/>
      <rect x="137" y="136" width="1" height="1"/>
      <rect x="138" y="136" width="1" height="1"/>
      <rect x="139" y="136" width="1" height="1"/>
      <rect x="140" y="136" width="1" height="1"/>
      <rect x="141" y="136" width="1" height="1"/>
      <rect x="142" y="136" width="1" height="1"/>
      <rect x="143" y="136" width="1" height="1"/>
      <rect x="144" y="136" width="1" height="1"/>
      <rect x="149" y="136" width="1" height="1"/>
      <rect x="150" y="136" width="1" height="1"/>
    </g>
  </g>
  <g id="monochrome">
    <rect x="200" y="0" width="80" height="110" rx="10" fill="#080808"/>
    <g fill="#e9e9e9">
      <rect x="205" y="5" width="10" height="10" rx="5"/>
      <rect x="235" y="5" width="10" height="10" rx="5"/>
      <rect x="250" y="5" width="10" height="10" rx="5"/>
      <rect x="265" y="5" width="10" height="10" rx="5"/>
      <rect x="205" y="20" width="10" height="10" rx="5"/>
      <rect x="220" y="20" width="10" height="10" rx="5"/>
      <rect x="250" y="20" width="10" height="10" rx="5"/>
      <rect x="205" y="35" width="10" height="10" rx="5"/>
      <rect x="220" y="35" width="10" height="10" rx="5"/>
      <rect x="235" y="35" width="10" height="10" rx="5"/>
      <rect x="250" y="35" width="10" height="10" rx="5"/>
      <rect x="265" y="35" width="10" height="10" rx="5"/>
      <rect x="205" y="50" width="10" height="10" rx="5"/>
      <rect x="220" y="50" width="10" height="10" rx="5"/>
      <rect x="235" y="50" width="10" height="10" rx="5"/>
      <rect x="250" y="50" width="10" height="10" rx="5"/>
      <rect x="265" y="50" width="10" height="10" rx="5"/>
      <rect x="205" y="65" width="10" height="10" rx="5"/>
      <rect x="220" y="65" width="10" height="10" rx="5"/>
      <rect x="235" y="65" width="10" height="10" rx="5"/>
      <rect x="250" y="65" width="10" height="10" rx="5"/>
      <rect x="265" y="65" width="10" height="10" rx="5"/>
      <rect x="220" y="80" width="10" height="10" rx="5"/>
      <rect x="250" y="80" width="10" height="10" rx="5"/>
      <rect x="265" y="80" width="10" height="10" rx="5"/>
      <rect x="205" y="95" width="10" height="10" rx="5"/>
      <rect x="220" y="95" width="10" height="10" rx="5"/>
      <rect x="235" y="95" width="10" height="10" rx="5"/>
      <rect x="265" y="95" width="10" height="10" rx="5"/>
      <rect x="205" y="10" width="10" height="15"/>
      <rect x="240" y="5" width="15" height="10"/>
      <rect x="255" y="5" width="15" height="10"/>
      <rect x="250" y="10" width="10" height="15"/>
      <rect x="205" y="25" width="10" height="15"/>
      <rect x="220" y="25" width="10" height="15"/>
      <rect x="250" y="25" width="10" height="15"/>
      <rect x="210" y="35" width="15" height="10"/>
      <rect x="205" y="40" width="10" height="15"/>
      <rect x="225" y="35" width="15" height="10"/>
      <rect x="220" y="40" width="10" height="15"/>
      <rect x="265" y="40" width="10" height="15"/>
      <rect x="210" y="50" width="15" height="10"/>
      <rect x="205" y="55" width="10" height="15"/>
      <rect x="225" y="50" width="15" height="10"/>
      <rect x="240" y="50" width="15" height="10"/>
      <rect x="255" y="50" width="15" height="10"/>
      <rect x="250" y="55" width="10" height="15"/>
      <rect x="265" y="55" width="10" height="15"/>
      <rect x="220" y="70" width="10" height="15"/>
      <rect x="240" y="65" width="15" height="10"/>
      <rect x="255" y="65" width="15" height="10"/>
      <rect x="250" y="70" width="10" height="15"/>
      <rect x="265" y="70" width="10" height="15"/>
      <rect x="220" y="85" width="10" height="15"/>
      <rect x="265" y="85" width="10" height="15"/>
      <rect x="210" y="95" width="15" height="10"/>
      <rect x="225" y="95" width="15" height="10"/>
      <rect x="215" y="45" width="5" height="5"/>
      <rect x="260" y="60" width="5" height="5"/>
    </g>
    <rect x="232" y="116" width="16" height="22" fill="#080808"/>
    <g fill="#e9e9e9">
      <rect x="233" y="117" width="1" height="1"/>
      <rect x="234" y="117" width="1" height="1"/>
      <rect x="239" y="117" width="1" height="1"/>
      <rect x="240" y="117" width="1" height="1"/>
      <rect x="241" y="117" width="1" height="1"/>
      <rect x="242" y="117" width="1" height="1"/>
      <rect x="243" y="117" width="1" height="1"/>
      <rect x="244" y="117" width="1" height="1"/>
      <rect x="245" y="117" width="1" height="1"/>
      <rect x="246" y="117" width="1" height="1"/>
      <rect x="233" y="118" width="1" height="1"/>
      <rect x="234" y="118" width="1" height="1"/>
      <rect x="239" y="118" width="1" height="1"/>
      <rect x="240" y="118" width="1" height="1"/>
      <rect x="241" y="118" width="1" height="1"/>
      <rect x="242" y="118" width="1" height="1"/>
      <rect x="243" y="118" width="1" height="1"/>
      <rect x="244" y="118" width="1" height="1"/>
      <rect x="245" y="118" width="1" height="1"/>
      <rect x="246" y="118" width="1" height="1"/>
      <rect x="233" y="119" width="1" height="1"/>
      <rect x="234" y="119" width="1" height="1"/>
      <rect x="242" y="119" width="1" height="1"/>
      <rect x="243" y="119" width="1" height="1"/>
      <rect x="233" y="120" width="1" height="1"/>
      <rect x="234" y="120" width="1" height="1"/>
      <rect x="236" y="120" width="1" height="1"/>
      <rect x="237" y="120" width="1" height="1"/>
      <rect x="242" y="120" width="1" height="1"/>
      <rect x="243" y="120" width="1" height="1"/>
      <rect x="233" y="121" width="1" height="1"/>
      <rect x="234" y="121" width="1" height="1"/>
      <rect x="236" y="121" width="1" height="1"/>
      <rect x="237" y="121" width="1" height="1"/>
      <rect x="242" y="121" width="1" height="1"/>
      <rect x="243" y="121" width="1" height="1"/>
      <rect x="233" y="122" width="1" height="1"/>
      <rect x="234" y="122" width="1" height="1"/>
      <rect x="236" y="122" width="1" height="1"/>
      <rect x="237" y="122" width="1" height="1"/>
      <rect x="242" y="122" width="1" height="1"/>
      <rect x="243" y="122" width="1" height="1"/>
      <rect x="233" y="123" width="1" height="1"/>
      <rect x="234" y="123" width="1" height="1"/>
      <rect x="235" y="123" width="1" height="1"/>
      <rect x="236" y="123" width="1" height="1"/>
      <rect x="237" y="123" width="1" height="1"/>
      <rect x="238" y="123" width="1" height="1"/>
      <rect x="239" y="123" width="1" height="1"/>
      <rect x="240" y="123" width="1" height="1"/>
      <rect x="242" y="123" width="1" height="1"/>
      <rect x="243" y="123" width="1" height="1"/>
      <rect x="245" y="123" width="1" height="1"/>
      <rect x="246" y="123" width="1" height="1"/>
      <rect x="233" y="124" width="1" height="1"/>
      <rect x="234" y="124" width="1" height="1"/>
      <rect x="235" y="124" width="1" height="1"/>
      <rect x="236" y="124" width="1" height="1"/>
      <rect x="237" y="124" width="1" height="1"/>
      <rect x="238" y="124" width="1" height="1"/>
      <rect x="239" y="124" width="1" height="1"/>
      <rect x="240" y="124" width="1" height="1"/>
      <rect x="242" y="124" width="1" height="1"/>
      <rect x="243" y="124" width="1" height="1"/>
      <rect x="245" y="124" width="1" height="1"/>
      <rect x="246" y="124" width="1" height="1"/>
      <rect x="233" y="125" width="1" height="1"/>
      <rect x="234" y="125" width="1" height="1"/>
      <rect x="235" y="125" width="1" height="1"/>
      <rect x="236" y="125" width="1" height="1"/>
      <rect x="237" y="125" width="1" height="1"/>
      <rect x="245" y="125" width="1" height="1"/>
      <rect x="246" y="125" width="1" height="1"/>
      <rect x="233" y="126" width="1" height="1"/>
      <rect x="234" y="126" width="1" height="1"/>
      <rect x="235" y="126" width="1" height="1"/>
      <rect x="236" y="126" width="1" height="1"/>
      <rect x="237" y="126" width="1" height="1"/>
      <rect x="238" y="126" width="1" height="1"/>
      <rect x="239" y="126" width="1" height="1"/>
      <rect x="240" y="126" width="1" height="1"/>
      <rect x="241" y="126" width="1" height="1"/>
      <rect x="242" y="126" width="1" height="1"/>
      <rect x="243" y="126" width="1" height="1"/>
      <rect x="244" y="126" width="1" height="1"/>
      <rect x="245" y="126" width="1" height="1"/>
      <rect x="246" y="126" width="1" height="1"/>
      <rect x="233" y="127" width="1" height="1"/>
      <rect x="234" y="127" width="1" height="1"/>
      <rect x="235" y="127" width="1" height="1"/>
      <rect x="236" y="127" width="1" height="1"/>
      <rect x="237" y="127" width="1" height="1"/>
      <rect x="238" y="127" width="1" height="1"/>
      <rect x="239" y="127" width="1" height="1"/>
      <rect x="240" y="127" width="1" height="1"/>
      <rect x="241" y="127" width="1" height="1"/>
      <rect x="242" y="127" width="1" height="1"/>
      <rect x="243" y="127" width="1" height="1"/>
      <rect x="244" y="127" width="1" height="1"/>
      <rect x="245" y="127" width="1" height="1"/>
      <rect x="246" y="127" width="1" height="1"/>
      <rect x="233" y="128" width="1" height="1"/>
      <rect x="234" y="128" width="1" height="1"/>
      <rect x="242" y="128" width="1" height="1"/>
      <rect x="243" y="128" width="1" height="1"/>
      <rect x="244" y="128" width="1" height="1"/>
      <rect x="245" y="128" width="1" height="1"/>
      <rect x="246" y="128" width="1" height="1"/>
      <rect x="233" y="129" width="1" height="1"/>
      <rect x="234" y="129" width="1" height="1"/>
      <rect x="236" y="129" width="1" height="1"/>
      <rect x="237" y="129" width="1" height="1"/>
      <rect x="239" y="129" width="1" height="1"/>
      <rect x="240" y="129" width="1" height="1"/>
      <rect x="241" y="129" width="1" height="1"/>
      <rect x="242" y="129" width="1" height="1"/>
      <rect x="243" y="129" width="1" height="1"/>
      <rect x="244" y="129" width="1" height="1"/>
      <rect x="245" y="129" width="1" height="1"/>
      <rect x="246" y="129" width="1" height="1"/>
      <rect x="233" y="130" width="1" height="1"/>
      <rect x="234" y="130" width="1" height="1"/>
      <rect x="236" y="130" width="1" height="1"/>
      <rect x="237" y="130" width="1" height="1"/>
      <rect x="239" y="130" width="1" height="1"/>
      <rect x="240" y="130" width="1" height="1"/>
      <rect x="241" y="130" width="1" height="1"/>
      <rect x="242" y="130" width="1" height="1"/>
      <rect x="243" y="130" width="1" height="1"/>
      <rect x="244" y="130" width="1" height="1"/>
      <rect x="245" y="130" width="1" height="1"/>
      <rect x="246" y="130" width="1" height="1"/>
      <rect x="236" y="131" width="1" height="1"/>
      <rect x="237" y="131" width="1" height="1"/>
      <rect x="242" y="131" width="1" height="1"/>
      <rect x="243" y="131" width="1" height="1"/>
      <rect x="245" y="131" width="1" height="1"/>
      <rect x="246" y="131" width="1" height="1"/>
      <rect x="236" y="132" width="1" height="1"/>
      <rect x="237" y="132" width="1" height="1"/>
      <rect x="242" y="132" width="1" height="1"/>
      <rect x="243" y="132" width="1" height="1"/>
      <rect x="245" y="132" width="1" height="1"/>
      <rect x="246" y="132" width="1" height="1"/>
      <rect x="236" y="133" width="1" height="1"/>
      <rect x="237" y="133" width="1" height="1"/>
      <rect x="242" y="133" width="1" height="1"/>
      <rect x="243" y="133" width="1" height="1"/>
      <rect x="245" y="133" width="1" height="1"/>
      <rect x="246" y="133" width="1" height="1"/>
      <rect x="236" y="134" width="1" height="1"/>
      <rect x="237" y="134" width="1" height="1"/>
      <rect x="245" y="134" width="1" height="1"/>
      <rect x="246" y="134" width="1" height="1"/>
      <rect x="233" y="135" width="1" height="1"/>
      <rect x="234" y="135" width="1" height="1"/>
      <rect x="235" y="135" width="1" height="1"/>
      <rect x="236" y="135" width="1" height="1"/>
      <rect x="237" y="135" width="1" height="1"/>
      <rect x="238" y="135" width="1" height="1"/>
      <rect x="239" y="135" width="1" height="1"/>
      <rect x="240" y="135" width="1" height="1"/>
      <rect x="245" y="135" width="1" height="1"/>
      <rect x="246" y="135" width="1" height="1"/>
      <rect x="233" y="136" width="1" height="1"/>
      <rect x="234" y="136" width="1" height="1"/>
      <rect x="235" y="136" width="1" height="1"/>
      <rect x="236" y="136" width="1" height="1"/>
      <rect x="237" y="136" width="1" height="1"/>
      <rect x="238" y="136" width="1" height="1"/>
      <rect x="239" y="136" width="1" height="1"/>
      <rect x="240" y="136" width="1" height="1"/>
      <rect x="245" y="136" width="1" height="1"/>
      <rect x="246" y="136" width="1" height="1"/>
    </g>
  </g>
</svg>
